<?xml version="1.0" encoding="utf-8"?>
<svg version="1.1" xmlns="http://www.w3.org/2000/svg" width="1536" height="1024">
  <path d="M -108.36 50.782 C -49.962 41.342 161.596 9.208 193.457 4.98 C 192.496 6.107 -48.006 238.942 -50.543 241.98 C -49.833 242.687 16.725 310.269 19.457 312.98 C 24.542 308.733 330.939 4.407 337.482 3.75 C 339.759 3.708 600.43 4.757 638.457 4.98 C 637.5 6.103 227.22 410.196 225.457 411.98 C 227.1 416.183 333.408 518.953 337.659 523.225 C 342.051 519.348 496.013 382.277 501.334 379.204 C 505.579 376.752 710.57 365.137 716.742 366.011 C 714.204 369.752 392.947 729.52 386.457 737.98 C 383.45 736.635 149.694 506.239 147.457 503.98 C 144.617 505.272 85.865 564.77 84.006 566.515 C 82.173 564.745 -267.832 216.713 -270.543 213.98 C -266.353 208.979 -112.991 51.531 -108.36 50.782 Z" fill="#10100F" transform="translate(726.54296875,198.01953125)"/>
  <path d="M 0 0 C 0.66 0 205.757 205.862 206.647 210.034 C 206.884 213.918 206.156 525.831 206 571 C 207.006 570.971 399.958 574.796 419.161 580.303 C 427.463 582.684 637.265 826.357 637.265 827.037 C 589.539 830.197 371.729 818.19 344.25 818.281 C 343.177 818.286 -0.063 563.431 -0.919 557.393 C -1.398 551.42 -0.169 52.642 0 0 Z" fill="#101010" transform="translate(138,71)"/>
</svg>