<?xml version="1.0" encoding="UTF-8"?>
<svg version="1.1" xmlns="http://www.w3.org/2000/svg" width="1536" height="1024">
<path d="M0 0 C506.88 0 1013.76 0 1536 0 C1536 337.92 1536 675.84 1536 1024 C1029.12 1024 522.24 1024 0 1024 C0 686.08 0 348.16 0 0 Z " fill="#FDFDFD" transform="translate(0,0)"/>
<path d="M0 0 C0.69387591 0.00121611 1.38775182 0.00243222 2.10265428 0.00368518 C20.16763457 0.04875903 38.20791389 0.59826786 56.25745118 1.30710685 C66.74970406 1.71462348 77.23962529 1.9907498 87.73803711 2.17895508 C88.48333509 2.19235398 89.22863307 2.20575287 89.99651583 2.2195578 C93.73763797 2.28614276 97.47879338 2.3505851 101.21997106 2.41396487 C131.97831557 2.93778979 162.71515436 3.8353197 193.45703125 4.98046875 C192.49581518 6.10657687 191.53393686 7.23211973 190.57177734 8.35742188 C189.76841446 9.29769226 189.76841446 9.29769226 188.94882202 10.25695801 C185.24107252 14.54063251 181.16819478 18.40720586 176.85546875 22.07421875 C171.81084743 26.46690905 167.14900881 31.21740063 162.45703125 35.98046875 C157.22482014 41.29195579 151.98531571 46.48194472 146.32421875 51.3359375 C143.22032527 54.06970142 140.3472287 57.02428505 137.45703125 59.98046875 C133.99024739 63.52640292 130.51033583 66.97653007 126.73828125 70.19921875 C121.18681835 74.99123297 116.10387049 80.26369511 110.95703125 85.48046875 C105.26421998 91.25063301 99.59566455 96.96279537 93.42773438 102.23242188 C89.41927688 105.78799121 85.71396371 109.6632324 81.95703125 113.48046875 C73.00337635 122.57784203 73.00337635 122.57784203 68.48828125 126.44921875 C63.5453546 130.69234921 59.02596768 135.34230601 54.45703125 139.98046875 C49.23490376 145.28171939 44.00554001 150.46014849 38.35546875 155.3046875 C35.06764261 158.2069044 32.02424962 161.34867737 28.95703125 164.48046875 C25.26165177 168.25364569 21.55800361 171.94288804 17.55078125 175.38671875 C12.94973003 179.35406553 8.71432922 183.65052064 4.45703125 187.98046875 C-3.96704994 196.54830559 -3.96704994 196.54830559 -8.35546875 200.29296875 C-14.06048835 205.19589649 -19.26197554 210.63101822 -24.54296875 215.98046875 C-26.623234 218.0877004 -28.70581892 220.19255454 -30.79296875 222.29296875 C-31.2936084 222.79683105 -31.79424805 223.30069336 -32.31005859 223.81982422 C-35.61376571 227.11915702 -39.01021723 230.2380206 -42.62890625 233.1875 C-45.52048581 235.8961429 -48.00592261 238.94218091 -50.54296875 241.98046875 C-49.83339272 242.68671387 -49.83339272 242.68671387 -49.10948181 243.40722656 C-44.15820476 248.33627095 -39.21053791 253.26891836 -34.26489258 258.20361328 C-32.42205456 260.04144227 -30.5783175 261.87837024 -28.73364258 263.71435547 C-26.07262467 266.36315698 -23.41492472 269.01525 -20.7578125 271.66796875 C-19.94086411 272.47975586 -19.12391571 273.29154297 -18.2822113 274.12792969 C-14.06833669 278.3413964 -10.03283835 282.6348816 -6.14622498 287.15136719 C-3.74744839 289.8880514 -1.19529974 292.4530967 1.390625 295.01171875 C1.91342545 295.53310425 2.43622589 296.05448975 2.97486877 296.5916748 C4.61238123 298.22367953 6.25336974 299.85213449 7.89453125 301.48046875 C9.01911455 302.60002507 10.1434653 303.71981504 11.26757812 304.83984375 C13.99472469 307.55608409 16.72499032 310.26915167 19.45703125 312.98046875 C24.54240463 308.73284028 29.25700747 304.27133063 33.89453125 299.54296875 C38.38303462 295.00605996 42.8822967 290.58165416 47.7578125 286.45703125 C50.8194345 283.79658731 53.6196075 280.8752786 56.45703125 277.98046875 C57.22917969 277.21863281 58.00132812 276.45679688 58.796875 275.671875 C61.20076619 273.23974427 63.51218372 270.75489776 65.80834961 268.22265625 C70.45223459 263.10329578 75.09348804 258.35887137 80.45703125 253.98046875 C82.93629614 251.61651851 85.19176511 249.32805886 87.26953125 246.60546875 C89.04161074 244.47897337 90.59127854 242.9680172 92.68798828 241.22045898 C98.72961759 235.98294731 104.28326618 230.24797488 109.90908432 224.57301521 C111.98259849 222.48196293 114.05976438 220.39460144 116.13796997 218.30821228 C122.04029976 212.38154044 127.93679238 206.44908509 133.82910156 200.51245117 C137.445635 196.86922055 141.06695591 193.2308068 144.69131851 189.59536552 C146.07037042 188.21009224 147.44752026 186.82292279 148.82275009 185.43385506 C150.73526123 183.50224479 152.65374541 181.57676509 154.57373047 179.65258789 C155.14306808 179.07448868 155.7124057 178.49638947 156.29899597 177.90077209 C160.22913196 173.98046875 160.22913196 173.98046875 162.45703125 173.98046875 C162.67149902 173.44075439 162.8859668 172.90104004 163.10693359 172.3449707 C164.94177632 169.13150745 167.44562614 166.72619876 170.05859375 164.1484375 C170.61388763 163.59360184 171.16918152 163.03876617 171.74130249 162.46711731 C172.91745567 161.29398086 174.09603401 160.12327146 175.27685547 158.95483398 C177.06006579 157.18971141 178.83531149 155.41688852 180.609375 153.64257812 C185.8495152 148.41921154 191.10483322 143.28341871 196.73535156 138.47729492 C199.62666535 135.96359032 202.32293831 133.26229856 205.01953125 130.54296875 C205.5818042 129.9794873 206.14407715 129.41600586 206.72338867 128.83544922 C210.23049427 125.29534871 213.54014335 121.64351455 216.76464844 117.84350586 C218.33969337 116.10963859 219.93861689 114.66195333 221.73828125 113.16796875 C228.55812295 107.27281161 234.79521898 100.74651655 241.14453125 94.35546875 C242.46265551 93.03231782 243.78101315 91.70939934 245.09960938 90.38671875 C247.51926698 87.95895193 249.93757755 85.52986127 252.35424805 83.09912109 C255.0501602 80.38787089 257.75343867 77.68406133 260.45703125 74.98046875 C261.80598671 73.62346463 263.15492151 72.2664397 264.50314331 70.90870667 C266.56805632 68.83021931 268.63580683 66.75456339 270.70361328 64.67895508 C271.7865484 63.59098683 272.86858488 62.50212334 273.94970703 61.41235352 C284.11803648 51.16513986 284.11803648 51.16513986 288.5 47.47265625 C290.92631757 45.42775452 292.90314491 43.48952911 294.89453125 41.04296875 C297.25401482 38.26120624 299.67219414 35.83604388 302.45703125 33.48046875 C305.21972966 31.14280086 307.61936336 28.74316716 309.95703125 25.98046875 C312.79981272 22.63073528 315.81766521 19.80068203 319.20647442 17.01092756 C321.53557537 14.99620886 321.53557537 14.99620886 323.60144699 12.48124182 C327.81023948 7.6567609 330.93897343 4.40670761 337.48204231 3.74999046 C339.75916144 3.70836923 342.03769524 3.72101638 344.31448364 3.77792358 C345.57667847 3.76937934 346.83887329 3.76083509 348.13931644 3.75203192 C351.61817651 3.72981046 355.09392189 3.76945926 358.57238531 3.81981254 C362.3322928 3.86319594 366.09203954 3.84836971 369.85212708 3.84078979 C376.35833135 3.83555851 382.86352905 3.86680123 389.36948013 3.92316818 C398.7756874 4.00460942 408.18141037 4.03049968 417.58793198 4.0430481 C432.85088908 4.06490802 448.11331027 4.13138474 463.37597656 4.22607422 C478.19788948 4.31793337 493.01965659 4.38868352 507.84179688 4.43115234 C508.75617728 4.43377958 509.67055769 4.43640681 510.61264659 4.43911366 C515.20004921 4.4521645 519.78745285 4.46480147 524.37485719 4.47723269 C562.40262368 4.58081764 600.42979202 4.75687641 638.45703125 4.98046875 C637.50007347 6.10266905 636.54229919 7.22417311 635.58418083 8.34538269 C635.05090797 8.96999484 634.51763511 9.59460699 633.96820247 10.23814678 C632.24681935 12.22283495 630.45450944 14.10993208 628.59814453 15.96875 C627.90367218 16.66637451 627.20919983 17.36399902 626.49368286 18.08276367 C625.76229095 18.81213135 625.03089905 19.54149902 624.27734375 20.29296875 C623.11995193 21.45179565 623.11995193 21.45179565 621.93917847 22.6340332 C620.31501017 24.25887859 618.68959202 25.88247551 617.06298828 27.50488281 C614.59293231 29.96959129 612.12824818 32.4395803 609.6640625 34.91015625 C608.07714336 36.49641439 606.48991393 38.08236218 604.90234375 39.66796875 C603.81132858 40.76202026 603.81132858 40.76202026 602.69827271 41.87817383 C599.48256977 45.07941222 596.25103735 48.19704817 592.79394531 51.13696289 C587.08932545 56.0615457 581.86164076 61.48255354 576.56056595 66.83233452 C574.58787313 68.82257869 572.61151837 70.8091198 570.63412476 72.79469299 C565.0185318 78.4346173 559.40879255 84.08033875 553.80322266 89.73022461 C550.3617538 93.19839146 546.91549738 96.66173987 543.46619797 100.122118 C542.15413143 101.44040506 540.84396701 102.76058804 539.53572464 104.08267021 C537.71661231 105.92088317 535.89152952 107.75296011 534.06494141 109.58374023 C533.52365601 110.13378723 532.98237061 110.68383423 532.42468262 111.25054932 C528.68493072 114.98046875 528.68493072 114.98046875 526.45703125 114.98046875 C526.12703125 115.97046875 525.79703125 116.96046875 525.45703125 117.98046875 C524.07299805 119.34326172 524.07299805 119.34326172 522.21875 120.84765625 C516.54044654 125.67087698 511.36032761 130.96560007 506.11434937 136.24798584 C504.23206949 138.14318768 502.34654507 140.03510928 500.46020508 141.92626953 C496.45631086 145.94151579 492.45637319 149.96068888 488.45703125 153.98046875 C483.81758571 158.64362336 479.17647384 163.3050943 474.53109741 167.96234131 C472.68571766 169.81413909 470.84340831 171.66895324 469.0012207 173.52392578 C463.93570631 178.61132204 458.87174975 183.59713954 453.40509033 188.25726318 C449.16640735 192.00669881 445.24322199 196.09516199 441.26171875 200.11328125 C440.30133309 201.07808556 439.34064388 202.0425878 438.37966919 203.00680542 C435.36093145 206.03685643 432.34618386 209.07085754 429.33203125 212.10546875 C425.82749391 215.63373255 422.32127209 219.16028918 418.81079483 222.68264389 C417.41848181 224.08137185 416.02925674 225.48317144 414.6401062 226.88504028 C410.39052997 231.15104135 406.12020286 235.17668084 401.45703125 238.98046875 C399.77899815 240.63569093 398.11365181 242.30381617 396.45703125 243.98046875 C395.64997238 244.78974823 394.84291351 245.59902771 394.01139832 246.43283081 C393.15838638 247.28885895 392.30537445 248.14488708 391.42651367 249.02685547 C386.58762566 253.88208778 381.74619232 258.7347735 376.90330029 263.58601189 C373.98359734 266.51093033 371.06483736 269.4367771 368.14819336 272.36474609 C365.31117685 275.21270125 362.4716583 278.05814032 359.63045692 280.90192032 C358.55602418 281.97818436 357.48246383 283.05532014 356.40984154 284.13338852 C351.21779384 289.3507588 345.9978919 294.46656486 340.40473938 299.25637817 C336.49934617 302.71339081 332.87471045 306.46264797 329.20703125 310.16796875 C328.34948242 311.0293042 327.49193359 311.89063965 326.60839844 312.77807617 C323.88882236 315.50977995 321.17251925 318.2447015 318.45703125 320.98046875 C314.87665099 324.58758726 311.29287944 328.19128677 307.70703125 331.79296875 C306.8984668 332.60983154 306.08990234 333.42669434 305.25683594 334.26831055 C301.75301145 337.7870806 298.2364352 341.22816908 294.47070312 344.46679688 C289.73910196 348.53818825 285.37809709 352.95303669 280.98828125 357.38671875 C280.10853638 358.27025024 279.2287915 359.15378174 278.3223877 360.06408691 C275.53148619 362.86712008 272.74373893 365.67326791 269.95703125 368.48046875 C266.28304387 372.18147425 262.60537523 375.87878697 258.92578125 379.57421875 C257.6801239 380.83232361 257.6801239 380.83232361 256.40930176 382.11584473 C252.12919587 386.41374731 247.7729767 390.53738462 243.17321777 394.49136353 C241.0876415 396.30098181 239.11984014 398.20380311 237.17578125 400.1640625 C236.4796875 400.86337891 235.78359375 401.56269531 235.06640625 402.28320312 C234.3703125 402.98767578 233.67421875 403.69214844 232.95703125 404.41796875 C231.86648438 405.5152832 231.86648438 405.5152832 230.75390625 406.63476562 C228.98593626 408.41436699 227.22036747 410.19627793 225.45703125 411.98046875 C227.10012167 416.18272463 230.19789758 418.99527162 233.34033203 422.10668945 C233.94224869 422.71050446 234.54416534 423.31431946 235.1643219 423.93643188 C237.15547635 425.93129028 239.15374212 427.91885494 241.15234375 429.90625 C242.54316072 431.2958741 243.93360739 432.6858689 245.32369995 434.07621765 C248.24103711 436.99199022 251.16170304 439.90437261 254.08496094 442.81420898 C257.8154541 446.52778358 261.53940286 450.24783469 265.26106453 453.97025776 C268.13482399 456.8437439 271.01119361 459.7146053 273.88842392 462.58461571 C275.26120776 463.95423568 276.6334029 465.324446 278.00497818 466.69527626 C287.08638771 475.78855572 287.08638771 475.78855572 296.63546753 484.38227844 C300.37193926 487.66055679 303.83049919 491.23274987 307.33203125 494.7578125 C308.14196533 495.56916153 308.95189941 496.38051056 309.78637695 497.21644592 C312.3456414 499.78126014 314.90138655 502.34954823 317.45703125 504.91796875 C319.20289258 506.66885158 320.94898412 508.41950488 322.6953125 510.16992188 C326.95188323 514.43745491 331.20557841 518.70783741 335.45703125 522.98046875 C339.86143782 521.36757364 342.49647036 517.90072184 345.50898743 514.48265076 C346.76652776 513.07895841 348.02408695 511.67528296 349.28166199 510.2716217 C349.95253027 509.51821566 350.62339855 508.76480961 351.31459618 507.98857307 C366.45945851 490.99579425 381.94557802 474.33460276 397.59224655 457.80402466 C399.92913962 455.33436143 402.26354852 452.86236347 404.59643555 450.38891602 C405.060607 449.89685789 405.52477846 449.40479977 406.00301572 448.89783079 C412.94373416 441.52984337 419.71376321 434.03176232 426.41088867 426.44165039 C490.94601881 353.48743029 490.94601881 353.48743029 534.73088157 350.36054385 C552.96024714 349.39469841 571.22246958 350.79440497 589.31541538 353.01949596 C604.43354762 354.87491443 619.28808442 355.40398102 634.5168457 355.27124023 C636.11613845 355.25810262 636.11613845 355.25810262 637.74774015 355.2446996 C643.65164005 355.18939894 649.55410755 355.10054697 655.45703125 354.98046875 C653.99310227 358.81305546 652.37619969 361.62368722 649.83203125 364.85546875 C645.25195806 370.83685258 640.93200016 376.97394667 636.64453125 383.16796875 C635.24741411 385.18490849 633.85027878 387.20183564 632.453125 389.21875 C631.77491699 390.1979541 631.09670898 391.1771582 630.39794922 392.18603516 C627.68677895 396.08943828 624.95147302 399.97541169 622.20703125 403.85546875 C621.7262915 404.53528809 621.24555176 405.21510742 620.75024414 405.91552734 C619.79500762 407.2656381 618.83952563 408.61557521 617.88378906 409.96533203 C615.44755454 413.40624232 613.01437795 416.84930945 610.58203125 420.29296875 C610.09114014 420.98769287 609.60024902 421.68241699 609.09448242 422.39819336 C606.40166131 426.21276905 603.71866511 430.03394166 601.046875 433.86328125 C595.40781361 441.9452035 589.74588837 450.00492549 583.95703125 457.98046875 C577.00306703 467.56329338 570.22564408 477.26622133 563.45703125 486.98046875 C556.73124739 496.63324845 549.99780044 506.27499488 543.08203125 515.79296875 C536.04976718 525.47554025 529.2409359 535.31036816 522.42382812 545.14501953 C514.48123671 556.5955231 506.47535584 567.99147306 498.28051758 579.26293945 C493.84522966 585.38779675 489.5780451 591.61844008 485.33178711 597.87524414 C481.11390651 604.07055336 476.75014331 610.14761883 472.33642578 616.2043457 C468.40000269 621.62537281 464.59323335 627.12420641 460.83203125 632.66796875 C456.55292969 638.97454938 452.16183283 645.16810828 447.61621094 651.28466797 C443.39954513 656.98947935 439.42046966 662.84642862 435.43798828 668.71606445 C431.65935574 674.26791938 427.78347912 679.73795624 423.83203125 685.16796875 C417.40133489 694.00873654 411.20722064 702.99782303 405.05859375 712.03613281 C399.05923817 720.84872212 392.94657257 729.52002969 386.45703125 737.98046875 C383.45006791 736.63455721 381.37770826 735.14792381 379.08203125 732.79296875 C378.47488281 732.17035156 377.86773438 731.54773438 377.2421875 730.90625 C375.6053696 729.1404924 374.05516282 727.33410577 372.51953125 725.48046875 C369.78975306 722.22935361 366.75715592 719.54160131 363.52734375 716.796875 C360.77983052 714.38632094 358.2447933 711.79636516 355.70703125 709.16796875 C353.81398626 707.32750834 351.88529352 705.61864677 349.8815918 703.90283203 C345.1911183 699.80827745 340.80099239 695.45040815 336.4140625 691.03515625 C335.54792328 690.16755676 334.68178406 689.29995728 333.78939819 688.40606689 C331.92116275 686.53404495 330.05385131 684.66115462 328.18807983 682.78668213 C325.23080834 679.81576333 322.26961454 676.84877422 319.30786133 673.88232422 C312.48794404 667.05042069 305.67307528 660.21348856 298.85826111 653.37649536 C292.60670721 647.10470062 286.3540623 640.83400363 280.09734249 634.56736183 C277.16024269 631.6253148 274.22558992 628.68085603 271.29286194 625.73445129 C269.03058463 623.46288884 266.76501423 621.19461418 264.5 618.92578125 C263.6997641 618.12037903 262.8995282 617.31497681 262.07504272 616.48516846 C257.95120807 612.36094962 253.73956306 608.42402209 249.32081223 604.61840439 C246.41785048 602.06721164 243.69963664 599.34681361 240.98095703 596.60205078 C240.3880336 596.00766708 239.79511017 595.41328339 239.18421936 594.80088806 C237.91347443 593.52637363 236.64388445 592.25070677 235.37537003 590.97397232 C233.36869915 588.95442069 231.35881803 586.93811262 229.34811401 584.9225769 C225.08991971 580.65302576 220.83570208 576.37952593 216.58203125 572.10546875 C211.62996162 567.12979337 206.67627297 562.15575216 201.71837997 557.18587875 C199.73648306 555.19749142 197.75761459 553.20612313 195.77883911 551.21463013 C194.57161916 550.00378003 193.36425992 548.79306877 192.15673828 547.58251953 C191.60610214 547.02671707 191.055466 546.47091461 190.48814392 545.89826965 C187.73764526 543.08969282 187.73764526 543.08969282 184.45703125 540.98046875 C184.45703125 540.32046875 184.45703125 539.66046875 184.45703125 538.98046875 C183.90015625 538.77421875 183.34328125 538.56796875 182.76953125 538.35546875 C180.19964454 536.827428 178.75231296 534.98022094 176.91113281 532.65966797 C175.37155674 530.88176263 173.74207386 529.43764476 171.94140625 527.92578125 C166.68786213 523.38977391 161.83942327 518.47148802 156.95703125 513.54296875 C156.03921875 512.62064453 155.12140625 511.69832031 154.17578125 510.74804688 C151.9338807 508.49446976 149.69436525 506.238578 147.45703125 503.98046875 C144.61687818 505.27225655 142.56004737 506.62829958 140.36010742 508.83447266 C139.78238083 509.40912262 139.20465424 509.98377258 138.60942078 510.57583618 C137.99581192 511.19663055 137.38220306 511.81742493 136.75 512.45703125 C136.10638016 513.10110931 135.46276031 513.74518738 134.79963684 514.40878296 C133.43818827 515.77325013 132.0791685 517.14014443 130.72241211 518.50927734 C128.6675911 520.58220569 126.60503138 522.64716854 124.54101562 524.7109375 C123.214374 526.0425009 121.88818781 527.37451824 120.5625 528.70703125 C119.95496384 529.31568024 119.34742767 529.92432922 118.72148132 530.55142212 C115.02083649 534.29227514 111.52120804 538.15904478 108.07850647 542.1378479 C105.95804323 544.54751148 103.71948768 546.81387627 101.43359375 549.06640625 C100.55832031 549.93394531 99.68304687 550.80148437 98.78125 551.6953125 C97.89050781 552.57316406 96.99976563 553.45101562 96.08203125 554.35546875 C94.28027724 556.13181015 92.48067942 557.91034214 90.68359375 559.69140625 C89.50144287 560.85615479 89.50144287 560.85615479 88.29541016 562.04443359 C86.39940784 563.85272832 86.39940784 563.85272832 85.45703125 565.98046875 C82.55481797 564.66775961 80.48990833 563.26147893 78.25 561.00390625 C77.66702148 560.41963867 77.08404297 559.83537109 76.48339844 559.23339844 C75.87657227 558.61368164 75.26974609 557.99396484 74.64453125 557.35546875 C74.01579102 556.7202832 73.38705078 556.08509766 72.73925781 555.43066406 C69.07025988 551.700675 65.54548475 547.89308282 62.15625 543.90625 C57.49513095 538.62364841 52.45460683 533.66576352 47.08451843 529.10916138 C41.01107599 523.80461178 35.38446135 518.03920836 29.69458008 512.33154297 C28.42095578 511.05763616 27.14711037 509.78395037 25.87306213 508.51046753 C22.43305119 505.07074221 18.9961219 501.62795285 15.55975556 498.184587 C11.9551069 494.57365923 8.34759947 490.96558975 4.74040222 487.35720825 C-2.08712388 480.52657976 -8.91209896 473.69340829 -15.73614913 466.85930741 C-23.48810167 459.09618366 -31.24288655 451.3358919 -38.99791753 443.57584357 C-52.25406693 430.31101941 -65.50810765 417.04409138 -78.75976562 403.77478027 C-79.59925962 402.93417689 -79.59925962 402.93417689 -80.45571309 402.07659161 C-81.48127764 401.04966046 -82.50682621 400.02271334 -83.53235406 398.99574554 C-85.78300472 396.74206346 -88.03435303 394.48908447 -90.28652 392.2369175 C-92.02499009 390.49844741 -93.76124119 388.75792895 -95.49389648 387.01367188 C-98.36893723 384.12081344 -101.24703907 381.23102202 -104.1262207 378.34228516 C-105.36149486 377.10196907 -106.5958718 375.86075877 -107.8293457 374.61865234 C-109.6260214 372.80977064 -111.42597564 371.00420626 -113.2265625 369.19921875 C-113.77050156 368.65011841 -114.31444061 368.10101807 -114.87486267 367.53527832 C-117.37312543 365.03665543 -119.89100894 362.6441384 -122.62524414 360.40429688 C-125.43819921 358.06750347 -127.97746775 355.57588717 -130.54296875 352.98046875 C-131.927056 351.59297617 -133.31179447 350.20613308 -134.69697571 348.81973267 C-136.36610464 347.14756826 -138.03522756 345.47539784 -139.7043457 343.80322266 C-149.03353132 334.45765004 -158.36528196 325.11464284 -167.69851398 315.77311134 C-173.34228231 310.1241878 -178.98510507 304.47432567 -184.62573242 298.82226562 C-189.56042553 293.87757614 -194.49689995 288.93467302 -199.43548173 283.99386728 C-202.04372998 281.38432179 -204.6511077 278.77392032 -207.25634193 276.16136551 C-210.16594411 273.24365195 -213.0795162 270.32993327 -215.9934082 267.41650391 C-216.84511093 266.5612059 -217.69681366 265.7059079 -218.57432556 264.82469177 C-222.87600371 260.53037665 -227.23954942 256.39536531 -231.88455486 252.47295189 C-234.38602722 250.22176155 -236.39098578 247.56284831 -238.54296875 244.98046875 C-239.6514456 243.99157789 -240.77872888 243.02360079 -241.91796875 242.0703125 C-247.92874668 236.87309528 -253.44986729 231.18013002 -259.04296875 225.54296875 C-260.16252507 224.41838545 -261.28231504 223.2940347 -262.40234375 222.16992188 C-265.11858409 219.44277531 -267.83165167 216.71250968 -270.54296875 213.98046875 C-266.35250754 208.97854942 -261.98301478 204.28500146 -257.3515625 199.69140625 C-256.34996849 198.69193466 -256.34996849 198.69193466 -255.32814026 197.67227173 C-253.21460999 195.5642866 -251.09761921 193.45981727 -248.98046875 191.35546875 C-247.55640766 189.93643166 -246.13257749 188.51716281 -244.70898438 187.09765625 C-242.09444278 184.49123928 -239.47858679 181.88615791 -236.86108398 179.28271484 C-232.6197572 175.06317229 -228.39145411 170.83108684 -224.1796875 166.58203125 C-222.53001359 164.92311177 -220.88027217 163.26425943 -219.23046875 161.60546875 C-218.41384766 160.78046875 -217.59722656 159.95546875 -216.75585938 159.10546875 C-215.5425293 157.88730469 -215.5425293 157.88730469 -214.3046875 156.64453125 C-213.22127075 155.55325928 -213.22127075 155.55325928 -212.1159668 154.43994141 C-210.13097192 152.54252814 -208.12848099 150.76137256 -206.04223633 148.98193359 C-200.63039088 144.27725064 -195.61988922 139.16891957 -190.57067871 134.08334351 C-188.75561309 132.25534696 -186.93729574 130.43063919 -185.11816406 128.60668945 C-181.2569269 124.73410453 -177.39964879 120.85759141 -173.54296875 116.98046875 C-169.0687387 112.48252271 -164.59283806 107.98626528 -160.1126709 103.49423218 C-158.3337662 101.7089133 -156.55793479 99.92057736 -154.78222656 98.13208008 C-149.70222132 93.02949947 -144.59907379 88.0191666 -139.11700439 83.34307861 C-137.1774676 81.66406202 -135.4184764 79.86822105 -133.69140625 77.97265625 C-132.75554687 76.95751953 -132.75554687 76.95751953 -131.80078125 75.921875 C-131.17945313 75.23996094 -130.558125 74.55804688 -129.91796875 73.85546875 C-125.66865438 69.19689664 -121.43286506 64.95937068 -116.54296875 60.98046875 C-112.9919477 57.92523537 -110.75168786 54.81666012 -108.35966492 50.78178406 C-82.27335744 7.30014397 -48.38125201 -0.11392626 0 0 Z " fill="#10100F" transform="translate(726.54296875,198.01953125)"/>
<path d="M0 0 C0.66 0 1.32 0 2 0 C3.25744629 1.27868652 3.25744629 1.27868652 4.79101562 3.16210938 C9.69989185 8.92860222 15.08359861 14.19511176 20.45271301 19.52787781 C22.38151763 21.44376469 24.30704603 23.36289273 26.23181152 25.28283691 C30.31838841 29.35805972 34.40889147 33.42932718 38.5 37.5 C43.24575898 42.2220532 47.98983664 46.94577069 52.72969055 51.67375183 C54.61472776 53.55236917 56.50278098 55.42791748 58.39099121 57.30334473 C59.56094093 58.46965758 60.73074804 59.63611351 61.90039062 60.80273438 C62.41591995 61.31309738 62.93144928 61.82346039 63.46260071 62.34928894 C66.17316254 65.05946548 68.7476384 67.83667819 71.24557495 70.74458313 C75.65091722 75.82650559 80.4075017 80.5394379 85.17041016 85.28393555 C86.1783106 86.29155328 87.18598964 87.29939251 88.19346619 88.30743408 C90.90800936 91.02226218 93.62560813 93.73401222 96.34379625 96.44519019 C99.19799593 99.29309699 102.04932419 102.14387584 104.90097046 104.99433899 C110.29725112 110.38752061 115.69607276 115.77815103 121.09583127 121.16785032 C127.22658168 127.28742541 133.3544971 133.40983596 139.48216939 139.532493 C149.95896252 150.00061497 160.43787532 160.46661097 170.91914368 170.93025208 C171.78255875 171.79222198 172.64597382 172.65419189 173.53555298 173.5422821 C174.32304554 174.32845098 175.1105381 175.11461987 175.92189407 175.92461205 C177.60921379 177.60972491 179.29567367 179.29568469 180.98129272 180.98249817 C182.38554632 182.38591323 183.79589788 183.78324226 185.2109375 185.17578125 C189.35918199 189.2716111 193.3512574 193.41816357 197.1015625 197.8828125 C198.84805176 199.98041781 198.84805176 199.98041781 200.6870504 201.22259384 C203.97373774 203.83488674 205.75741742 205.86173422 206.64651191 210.03361595 C206.88410894 213.91842415 206.90024857 217.77213178 206.84178162 221.66062927 C206.84483582 223.168107 206.85096798 224.6755811 206.85990578 226.18303543 C206.87553966 230.31787085 206.84758699 234.45143425 206.81245935 238.58610761 C206.78221075 243.04751135 206.79246106 247.50884421 206.79777527 251.97032166 C206.80144456 259.69752924 206.77949505 267.42432286 206.7401104 275.15142632 C206.68320437 286.32342664 206.6649886 297.49522695 206.65619446 308.6673565 C206.64087663 326.79356922 206.59429909 344.91956134 206.52807617 363.0456543 C206.46381634 380.65273943 206.41427064 398.25976463 206.38452148 415.86694336 C206.38268242 416.95237069 206.38084336 418.03779801 206.37894856 419.15611707 C206.36981325 424.60142419 206.36096731 430.04673174 206.35226524 435.49203956 C206.27970619 480.6615125 206.15642111 525.83074486 206 571 C207.00640282 570.97050262 208.01280563 570.94100525 209.04970551 570.91061401 C233.68533402 570.19611028 258.31960173 569.67248909 282.96344757 569.3420105 C294.88256359 569.17787955 306.79478725 568.95474591 318.70947266 568.5859375 C329.11088044 568.26412838 339.50729634 568.05990084 349.91354418 567.98916817 C355.41274949 567.94788088 360.89769537 567.85307052 366.39225769 567.61663818 C386.41132952 566.78792147 403.67374751 566.12606113 419.16121244 580.30262184 C425.3510375 586.32608948 430.94276592 592.84601437 436.24221039 599.6579895 C438.54260969 602.57043149 441.03181746 604.75376792 444 607 C445.00236344 608.0805624 445.97132554 609.19312711 446.90344238 610.33483887 C452.72950964 617.13363337 459.20604099 623.3278781 465.54492188 629.64257812 C467.02248567 631.11822045 468.49982025 632.59409232 469.97694397 634.07017517 C473.14677579 637.23685672 476.31815193 640.40198048 479.49073792 643.56590271 C484.51151992 648.57311446 489.52844277 653.58418095 494.5447998 658.5958252 C505.19357217 669.23351712 515.8465659 679.86697702 526.5 690.5 C538.00281441 701.98077595 549.50489652 713.4622798 561.00209665 724.94867849 C565.98469671 729.92630835 570.96972213 734.90149235 575.95664215 739.87479401 C579.06256777 742.97323914 582.16640122 746.07377367 585.26968193 749.17486763 C586.70426018 750.60758031 588.1396994 752.03943153 589.57608223 753.47033501 C602.74732689 766.59293189 602.74732689 766.59293189 607.64251804 772.41921425 C610.25995567 775.46721653 613.16105238 778.24318816 616.02734375 781.0546875 C617.32629718 782.34101931 618.62512178 783.62748123 619.92382812 784.9140625 C621.9455021 786.91074087 623.96876767 788.90575922 625.99438477 790.8984375 C627.9680125 792.84205077 629.93552729 794.7916855 631.90234375 796.7421875 C632.51472397 797.34110809 633.12710419 797.94002869 633.75804138 798.55709839 C635.21029552 800.00055908 636.61078013 801.49577628 638 803 C638 803.66 638 804.32 638 805 C590.27361802 808.16011841 542.55874811 810.53156493 494.74725258 811.94488481 C489.01899665 812.11484386 483.29094278 812.29088458 477.56298828 812.47070312 C475.8535322 812.52421445 475.8535322 812.52421445 474.10954165 812.57880682 C458.21269479 813.08897581 442.36308324 813.92257647 426.49693048 815.02787507 C399.08866358 816.93681447 371.72883325 818.19040013 344.25 818.28125 C343.17732612 818.2860983 342.10465224 818.29094661 340.99947309 818.29594183 C275.88561388 818.47939647 231.98886663 804.51865498 185.04685879 758.38014585 C160.15784206 733.51792303 137.25576141 706.46775048 116.22284317 678.28290987 C111.89288025 672.50635408 107.735541 667.42711791 102 663 C100.31270188 661.3542234 98.64563244 659.68743872 97 658 C96.00224746 656.99954473 95.00304584 656.00053331 94.00268555 655.00268555 C35.99731445 596.99731445 35.99731445 596.99731445 34.46003723 595.4598999 C33.05766562 594.0576602 31.65481952 592.65589509 30.25195312 591.25415039 C28.69764542 589.69832612 27.14916147 588.13666955 25.60546875 586.5703125 C21.83491896 582.75712321 18.07547882 578.98854374 14 575.5 C13.40701186 574.9670845 12.81402371 574.43416899 12.20306623 573.88510454 C10.00945837 571.94002853 10.00945837 571.94002853 7.46415198 570.26306307 C2.67690216 566.50223528 -0.06293556 563.43127325 -0.91855741 557.39258647 C-1.39757088 551.41990214 -1.28573055 545.4477947 -1.20254517 539.46176147 C-1.20690766 537.1349812 -1.2156667 534.80820572 -1.22843683 532.4814564 C-1.25078326 526.09573441 -1.21082049 519.71169161 -1.16065621 513.32618356 C-1.116979 507.1451729 -1.13026357 500.96414579 -1.13747464 494.78302788 C-1.15059809 482.14265684 -1.11725983 469.50280946 -1.05730057 456.86259079 C-0.99809912 444.35001405 -0.95963496 431.8376555 -0.94877243 419.32493973 C-0.94808503 418.54650023 -0.94739764 417.76806074 -0.94668941 416.96603217 C-0.94330601 413.01261671 -0.9402922 409.05920106 -0.93742065 405.10578521 C-0.91642502 377.11480868 -0.84907547 349.12411693 -0.75439453 321.13330078 C-0.66252837 293.943212 -0.59170305 266.7532012 -0.54931641 239.56298828 C-0.54734351 238.30547204 -0.54734351 238.30547204 -0.54533076 237.02255143 C-0.53214539 228.60343745 -0.51938728 220.18432286 -0.50694217 211.76520775 C-0.48158108 194.61500291 -0.45336856 177.46480315 -0.4234314 160.31460571 C-0.4220585 159.52609384 -0.4206856 158.73758196 -0.41927109 157.92517579 C-0.32728812 105.28333077 -0.16863067 52.64164852 0 0 Z " fill="#101010" transform="translate(138,71)"/>
<path d="M0 0 C0.66 0.33 1.32 0.66 2 1 C-4.86993374 7.91619416 -11.74520018 14.82703728 -18.62740135 21.7310257 C-21.82262259 24.93670163 -25.01594977 28.14421869 -28.20507812 31.35595703 C-31.28056622 34.45311347 -34.36085863 37.54541454 -37.44459915 40.63435364 C-38.62255316 41.81601423 -39.79874021 42.99943888 -40.97315598 44.18461609 C-42.61342101 45.83931617 -44.25975387 47.48773516 -45.90771484 49.13476562 C-46.39611343 49.63035477 -46.88451202 50.12594391 -47.38771057 50.6365509 C-50.77189568 54 -50.77189568 54 -53 54 C-53 54.66 -53 55.32 -53 56 C-54.62626404 57.38232443 -56.2925002 58.71937515 -58 60 C-58.66 59.67 -59.32 59.34 -60 59 C-55.1269556 54.02543384 -50.19298504 49.22464123 -44.91015625 44.6875 C-41.79476949 41.93525648 -38.90838707 38.96720839 -36 36 C-35.22785156 35.23816406 -34.45570313 34.47632813 -33.66015625 33.69140625 C-31.25626506 31.25927552 -28.94484753 28.77442901 -26.64868164 26.2421875 C-22.00479666 21.12282703 -17.36354321 16.37840262 -12 12 C-9.41486866 9.53510733 -7.09034183 7.11425584 -4.875 4.3125 C-3 2 -3 2 0 0 Z " fill="#161616" transform="translate(819,440)"/>
<path d="M0 0 C0.66 0.33 1.32 0.66 2 1 C-13.18 16.18 -28.36 31.36 -44 47 C-44.66 46.67 -45.32 46.34 -46 46 C-39.61329313 38.84081887 -33.02492539 31.91766273 -26.25 25.125 C-25.54174072 24.412229 -24.83348145 23.69945801 -24.10375977 22.96508789 C-20.36433389 19.23615497 -16.54282867 15.7099175 -12.50048828 12.31347656 C-10.5755251 10.62842906 -8.93826298 8.78467252 -7.3125 6.8125 C-5.07880845 4.10967992 -2.87186709 2.02094351 0 0 Z " fill="#212122" transform="translate(1029,232)"/>
<path d="M0 0 C0.99 0.33 1.98 0.66 3 1 C0.05226582 3.99707817 -2.90191208 6.98760494 -5.86230469 9.97216797 C-6.86899728 10.98893399 -7.87388966 12.00748562 -8.87695312 13.02783203 C-10.31694371 14.49201218 -11.76323256 15.94970205 -13.2109375 17.40625 C-14.08024902 18.28603516 -14.94956055 19.16582031 -15.84521484 20.07226562 C-18 22 -18 22 -20 22 C-18.51346494 18.53370165 -16.54277649 16.30977964 -13.8671875 13.671875 C-12.65869141 12.47304687 -12.65869141 12.47304687 -11.42578125 11.25 C-10.58402344 10.425 -9.74226562 9.6 -8.875 8.75 C-8.02550781 7.90953125 -7.17601562 7.0690625 -6.30078125 6.203125 C-4.20495077 4.13084317 -2.10459287 2.06337607 0 0 Z " fill="#171818" transform="translate(666,203)"/>
<path d="M0 0 C0.33 0.66 0.66 1.32 1 2 C-0.28062485 3.7074998 -1.61767557 5.37373596 -3 7 C-3.66 7 -4.32 7 -5 7 C-5.400979 7.88993652 -5.400979 7.88993652 -5.81005859 8.79785156 C-7.01584993 11.02933245 -8.2358095 12.4664799 -10.0390625 14.234375 C-10.90917969 15.09482422 -10.90917969 15.09482422 -11.796875 15.97265625 C-12.40015625 16.55917969 -13.0034375 17.14570313 -13.625 17.75 C-14.23601562 18.35199219 -14.84703125 18.95398438 -15.4765625 19.57421875 C-16.97988624 21.05405305 -18.48934856 22.52764676 -20 24 C-20.66 23.34 -21.32 22.68 -22 22 C-14.66666667 14.66666667 -7.33333333 7.33333333 0 0 Z " fill="#232323" transform="translate(507,360)"/>
<path d="M0 0 C0.66 0.33 1.32 0.66 2 1 C-0.90780488 3.98206129 -3.82541509 6.95406794 -6.75244141 9.91723633 C-7.74639553 10.92626019 -8.73763835 11.93796245 -9.72607422 12.95239258 C-11.14884277 14.41162404 -12.58114262 15.86088722 -14.015625 17.30859375 C-14.87446289 18.18314209 -15.73330078 19.05769043 -16.61816406 19.95874023 C-18.88750566 21.90359111 -20.08381239 22.64285557 -23 23 C-20.25882525 19.27200234 -17.25724847 16.41591165 -13.734375 13.47265625 C-10.44475112 10.67943958 -7.5497297 7.69524638 -4.875 4.3125 C-3 2 -3 2 0 0 Z " fill="#1D1D1D" transform="translate(819,440)"/>
<path d="M0 0 C0 3 0 3 -2.625 5.91796875 C-3.74249406 7.01550756 -4.86785643 8.10507895 -6 9.1875 C-6.57234375 9.74630859 -7.1446875 10.30511719 -7.734375 10.88085938 C-9.14962788 12.26073093 -10.57397155 13.63126734 -12 15 C-12.66 14.67 -13.32 14.34 -14 14 C-12.23304141 12.03804598 -10.46168211 10.08040373 -8.6875 8.125 C-8.18798828 7.56941406 -7.68847656 7.01382812 -7.17382812 6.44140625 C-4.8912844 3.93211977 -2.83639832 1.89093222 0 0 Z " fill="#191819" transform="translate(948,312)"/>
<path d="M0 0 C0 4.06772485 -1.54175504 5.09653495 -4.25 8.0625 C-5.03890625 8.94035156 -5.8278125 9.81820313 -6.640625 10.72265625 C-8.74033941 12.74936735 -10.32636212 13.91460114 -13 15 C-9.09489511 9.49280079 -4.90282356 4.64172645 0 0 Z " fill="#1E1E1F" transform="translate(604,264)"/>
<path d="M0 0 C-1.38188453 3.21043882 -2.92421903 5.04936365 -5.625 7.25 C-6.57246094 8.03117187 -6.57246094 8.03117187 -7.5390625 8.828125 C-8.02117187 9.21484375 -8.50328125 9.6015625 -9 10 C-9.66 9.67 -10.32 9.34 -11 9 C-9.54782324 7.49403892 -8.08807139 5.99537896 -6.625 4.5 C-5.40683594 3.24703125 -5.40683594 3.24703125 -4.1640625 1.96875 C-2 0 -2 0 0 0 Z " fill="#262627" transform="translate(519,350)"/>
<path d="M0 0 C0.33 0.99 0.66 1.98 1 3 C-1.64 5.64 -4.28 8.28 -7 11 C-7.33 10.01 -7.66 9.02 -8 8 C-5.36 5.36 -2.72 2.72 0 0 Z " fill="#1C1D1D" transform="translate(862,397)"/>
<path d="M0 0 C0.33 0.66 0.66 1.32 1 2 C-0.07192184 3.3218362 -1.15802695 4.63217927 -2.25 5.9375 C-2.85328125 6.66839844 -3.4565625 7.39929688 -4.078125 8.15234375 C-6.10741134 10.10326334 -7.254407 10.61731779 -10 11 C-8.625 9 -8.625 9 -7 7 C-6.34 7 -5.68 7 -5 7 C-4.731875 6.401875 -4.46375 5.80375 -4.1875 5.1875 C-3.01506533 3.02775192 -1.80630718 1.64209744 0 0 Z " fill="#282829" transform="translate(894,365)"/>
<path d="M0 0 C-1.55500981 3.81684226 -4.03595495 6.19195732 -7 9 C-7.99 8.67 -8.98 8.34 -10 8 C-8.71451591 6.66070495 -7.42141845 5.32871357 -6.125 4 C-5.04605469 2.88625 -5.04605469 2.88625 -3.9453125 1.75 C-2 0 -2 0 0 0 Z " fill="#1B1B1C" transform="translate(919,342)"/>
<path d="M0 0 C0.66 0.66 1.32 1.32 2 2 C-1.465 4.97 -1.465 4.97 -5 8 C-5 5 -5 5 -2.5 2.3125 C-1.675 1.549375 -0.85 0.78625 0 0 Z " fill="#171718" transform="translate(958,302)"/>
<path d="M0 0 C0.99 0.33 1.98 0.66 3 1 C0.69 3.31 -1.62 5.62 -4 8 C-4.99 7.67 -5.98 7.34 -7 7 C-6.21625 6.401875 -5.4325 5.80375 -4.625 5.1875 C-1.85425677 3.08914751 -1.85425677 3.08914751 0 0 Z " fill="#1F1F20" transform="translate(612,256)"/>
<path d="M0 0 C0 3 0 3 -2 5.1875 C-2.66 5.785625 -3.32 6.38375 -4 7 C-4.99 6.67 -5.98 6.34 -7 6 C-4.69 4.02 -2.38 2.04 0 0 Z " fill="#252525" transform="translate(948,312)"/>
</svg>
